<?xml version="1.0" standalone="no"?>
<!DOCTYPE svg PUBLIC "-//W3C//DTD SVG 20010904//EN"
 "http://www.w3.org/TR/2001/REC-SVG-20010904/DTD/svg10.dtd">
<svg version="1.0" xmlns="http://www.w3.org/2000/svg"
 width="4000.000000pt" height="2250.000000pt" viewBox="0 0 4000.000000 2250.000000"
 preserveAspectRatio="xMidYMid meet">

<g transform="translate(0.000000,2250.000000) scale(0.100000,-0.100000)"
fill="#000000" stroke="none">
<path d="M0 11250 l0 -11250 20000 0 20000 0 0 11250 0 11250 -20000 0 -20000
0 0 -11250z m13506 9912 l521 -1097 8224 -5 8224 -5 96 -26 c137 -38 234 -81
339 -151 432 -285 609 -825 427 -1306 -29 -76 -218 -424 -1017 -1872 -87 -157
-622 -1129 -1190 -2160 -2063 -3746 -1864 -3391 -2005 -3567 -299 -373 -736
-651 -1200 -764 -263 -63 54 -59 -4538 -59 l-4182 -1 -475 -865 c-261 -476
-490 -895 -508 -932 -31 -62 -33 -73 -29 -143 3 -60 9 -86 30 -122 34 -57 87
-102 146 -122 40 -13 730 -15 6443 -15 l6398 0 -2 -1102 -3 -1103 -6690 0
c-7205 0 -6756 -3 -7003 51 -236 52 -521 172 -717 301 -849 559 -1209 1592
-889 2553 25 74 69 185 98 245 29 61 385 713 791 1450 406 737 740 1347 742
1355 2 9 -267 587 -598 1285 -330 699 -786 1659 -1011 2135 -748 1577 -1310
2764 -1358 2865 -26 55 -233 492 -460 970 -227 479 -437 923 -468 988 l-55
117 -1104 0 -1103 0 0 1100 0 1100 1803 0 1802 0 521 -1098z m2754 -16533
c893 -106 1641 -762 1865 -1634 50 -194 68 -341 69 -550 0 -356 -67 -649 -223
-970 -310 -637 -902 -1082 -1607 -1206 -152 -27 -447 -36 -594 -20 -505 58
-941 261 -1299 606 -294 284 -509 661 -610 1070 -87 356 -78 768 26 1130 165
578 575 1076 1108 1350 385 197 829 276 1265 224z m10885 11 c77 -6 169 -15
205 -21 659 -110 1219 -494 1558 -1069 138 -233 235 -513 278 -800 21 -140 24
-441 5 -580 -120 -897 -742 -1614 -1609 -1855 -200 -55 -317 -69 -577 -70
-207 0 -257 3 -368 23 -368 66 -684 205 -966 422 -713 551 -1018 1474 -777
2350 102 372 283 680 565 961 151 150 254 232 411 327 340 205 654 296 1110
320 14 1 88 -3 165 -8z"/>
</g>
</svg>
