<?xml version="1.0" standalone="no"?>
<!DOCTYPE svg PUBLIC "-//W3C//DTD SVG 20010904//EN"
 "http://www.w3.org/TR/2001/REC-SVG-20010904/DTD/svg10.dtd">
<svg version="1.0" xmlns="http://www.w3.org/2000/svg"
 width="1840.000000pt" height="664.000000pt" viewBox="0 0 1840.000000 664.000000"
 preserveAspectRatio="xMidYMid meet">

<g transform="translate(0.000000,664.000000) scale(0.100000,-0.100000)"
fill="#000000" stroke="none">
<path d="M0 3320 l0 -3320 9200 0 9200 0 0 3320 0 3320 -9200 0 -9200 0 0
-3320z m810 3040 c0 -5 -2 -10 -4 -10 -3 0 -8 5 -11 10 -3 6 -1 10 4 10 6 0
11 -4 11 -10z m704 -11 c34 -6 75 -19 91 -28 23 -12 54 -16 128 -14 54 0 97
-3 97 -8 0 -5 12 -9 28 -9 15 0 59 0 97 0 50 0 66 -3 55 -10 -13 -8 -12 -10 3
-10 9 0 17 7 17 15 0 8 5 15 10 15 6 0 10 -4 10 -10 0 -19 150 -12 194 9 23
11 55 22 72 26 25 5 32 2 41 -17 17 -39 91 -58 220 -58 127 0 141 3 154 38 8
22 14 24 46 19 23 -4 46 -1 62 8 34 18 136 34 153 24 7 -5 21 -9 32 -9 15 0
16 3 6 15 -11 13 -8 15 18 15 17 0 32 -6 36 -15 3 -8 12 -15 20 -15 25 0 66
-22 59 -33 -10 -16 90 2 103 19 14 17 54 18 89 2 21 -9 31 -9 46 0 10 7 27 12
36 12 15 0 16 2 3 10 -11 7 -5 10 24 10 31 0 37 -3 28 -12 -18 -18 -14 -38 8
-38 11 0 20 4 20 10 0 23 79 50 150 50 62 0 70 -2 70 -19 0 -10 -7 -21 -15
-25 -32 -12 -13 -26 35 -26 39 0 52 4 60 20 9 16 8 20 -5 20 -8 0 -15 5 -15
10 0 8 209 18 270 12 31 -3 94 -20 78 -21 -10 0 -18 -5 -18 -11 0 -15 21 -12
40 5 15 13 20 13 50 -2 24 -12 35 -13 38 -5 5 16 45 15 60 0 10 -10 15 -10 22
2 8 13 15 12 49 -7 22 -13 50 -23 63 -23 32 0 52 15 43 30 -6 10 -1 11 21 6
72 -18 144 -18 178 -2 44 21 209 22 257 2 19 -7 50 -17 69 -21 32 -7 34 -6 20
10 -13 16 -8 17 90 11 262 -15 323 -21 328 -33 2 -7 14 -13 27 -13 24 0 49 22
38 33 -10 10 46 8 96 -4 31 -7 59 -6 96 2 42 9 57 9 81 -3 16 -9 46 -18 66
-22 20 -4 38 -12 40 -18 2 -6 11 -8 19 -4 38 19 58 33 54 38 -15 15 32 26 139
32 102 6 118 5 108 -7 -10 -12 -3 -15 46 -21 33 -4 77 -4 98 -1 25 4 45 2 56
-7 21 -15 41 -95 40 -153 -5 -220 -12 -331 -25 -389 -13 -58 -13 -77 -2 -120
17 -67 28 -276 15 -276 -6 0 -8 -10 -5 -22 3 -13 2 -59 -3 -103 -6 -59 -11
-79 -21 -77 -10 2 -12 -4 -6 -25 4 -15 7 -44 6 -63 -1 -19 -4 -124 -7 -232 -4
-165 -2 -198 9 -198 11 0 13 -15 9 -76 -3 -56 -2 -75 7 -70 15 10 15 -218 -1
-299 -6 -33 -13 -89 -16 -125 -5 -79 -15 -691 -13 -850 0 -63 1 -167 1 -230 1
-63 1 -694 1 -1402 l1 -1288 -64 0 c-35 0 -70 -5 -78 -11 -12 -8 -10 -9 8 -4
28 8 122 -4 122 -15 0 -8 -72 -23 -110 -21 -180 6 -233 10 -243 20 -16 16 -83
14 -119 -5 -22 -11 -33 -13 -41 -5 -6 6 -24 11 -39 11 -16 0 -31 7 -34 15 -8
19 -71 20 -121 1 -55 -21 -210 -28 -217 -10 -6 15 -38 19 -50 6 -4 -4 -47 -8
-94 -9 -48 -1 -118 -4 -156 -8 -54 -5 -77 -3 -107 11 -22 9 -39 23 -39 31 0 9
-8 13 -22 11 -18 -2 -22 -9 -20 -30 3 -26 1 -28 -38 -28 -23 0 -39 3 -37 8 3
4 -13 8 -34 9 -29 2 -41 -2 -46 -14 -6 -14 -8 -14 -20 2 -7 10 -16 16 -19 12
-3 -3 -32 6 -64 20 -49 21 -66 24 -97 16 -21 -5 -39 -13 -39 -18 -7 -52 -15
-56 -73 -49 -57 7 -104 23 -68 24 10 0 17 8 17 20 0 15 -7 20 -25 20 -14 0
-25 6 -26 13 0 6 -3 7 -5 2 -2 -6 -23 -9 -46 -7 -33 4 -40 2 -35 -11 4 -12 -9
-16 -72 -21 -43 -4 -102 -4 -132 -1 -144 16 -139 14 -139 41 0 20 -5 24 -28
24 -15 0 -35 -8 -44 -18 -59 -60 -81 -68 -98 -36 -20 36 -59 32 -94 -11 -18
-22 -38 -35 -53 -35 -13 0 -23 2 -23 4 0 2 -3 11 -6 19 -3 9 2 17 13 21 18 5
-208 -1 -297 -8 -105 -9 -457 -7 -487 2 -18 6 -57 7 -92 3 -33 -4 -66 -4 -73
1 -9 5 -7 8 7 8 19 1 19 1 1 11 -10 7 -34 8 -55 4 -20 -3 -57 -6 -83 -5 -29 0
-66 -7 -94 -20 -26 -11 -52 -20 -59 -20 -7 0 -18 -6 -24 -13 -15 -19 -331 -18
-354 1 -13 11 -32 12 -99 3 -139 -18 -316 -17 -371 3 -36 13 -52 14 -62 6 -21
-17 -270 -11 -323 8 -36 13 -49 13 -82 2 -31 -10 -55 -11 -112 -2 -125 19
-206 21 -212 6 -6 -15 -36 -19 -36 -5 0 7 -79 23 -105 21 -5 -1 -28 -3 -50 -4
-22 -2 -50 -6 -62 -10 -11 -4 -42 -2 -67 5 l-46 11 -1 67 c0 36 -3 84 -7 106
l-7 40 -17 -45 c-9 -25 -19 -56 -21 -70 -4 -24 -4 -24 -6 3 0 15 -6 36 -13 46
-8 13 -8 29 -1 60 8 28 8 67 1 118 -9 77 -5 128 10 119 5 -3 9 23 9 57 0 39 8
81 21 112 22 55 37 202 20 207 -14 5 -29 141 -16 149 6 4 12 41 14 84 2 63 1
75 -11 65 -9 -8 -15 -8 -20 0 -9 14 -9 82 0 109 5 18 9 20 21 10 12 -9 14 -5
14 25 0 21 5 46 10 57 14 26 1 279 -14 279 -7 0 -12 -32 -14 -87 -1 -48 -7
-92 -12 -97 -7 -7 -10 1 -10 22 0 42 -20 42 -21 0 l-1 -33 -8 35 c-5 18 -15
39 -24 46 -22 15 -20 67 3 95 20 25 19 87 -3 101 -7 4 -4 30 7 80 10 40 17 80
17 89 0 20 -23 69 -32 69 -5 0 -8 14 -8 30 0 31 17 39 38 18 15 -15 26 13 18
46 -5 22 -9 24 -35 16 -28 -8 -28 -8 -17 22 9 25 8 31 -7 39 -23 14 -22 39 3
39 12 0 25 -10 32 -25 6 -14 15 -25 20 -25 4 0 8 11 8 25 0 14 5 25 10 25 6 0
10 -25 10 -55 0 -36 5 -57 14 -62 8 -4 16 -19 18 -33 7 -45 27 97 22 153 -8
84 -12 93 -34 93 -11 0 -20 -7 -21 -16 0 -10 -2 -11 -6 -2 -9 23 -23 12 -23
-20 l-1 -33 -15 34 c-10 25 -11 36 -3 41 7 5 5 9 -5 13 -9 4 -21 19 -26 33 -9
23 -7 31 11 50 17 19 19 26 10 38 -15 17 7 96 26 96 7 0 13 9 13 20 0 13 -5
17 -14 14 -11 -4 -16 4 -18 28 -2 27 2 36 25 50 32 21 38 59 8 51 -13 -3 -18
-11 -14 -21 3 -11 2 -13 -4 -6 -4 6 -16 13 -25 17 -22 8 -24 27 -3 27 17 0 39
72 30 100 -4 11 -12 26 -20 33 -8 9 -17 62 -24 148 -10 127 -9 134 9 152 24
22 24 19 1 46 -22 25 -20 41 9 59 17 10 20 10 20 -3 0 -20 16 -19 24 1 9 25 7
104 -3 104 -5 0 -15 -17 -22 -37 l-13 -38 -8 35 c-5 19 -9 40 -9 45 1 6 3 54
6 108 3 54 1 97 -4 97 -16 0 -19 64 -5 104 17 48 18 46 -6 46 -21 0 -21 14 1
103 13 52 32 37 23 -19 -5 -38 -4 -43 10 -38 22 8 30 46 20 97 -4 23 -8 104
-9 179 -1 116 -4 140 -19 157 -20 22 -14 58 13 78 13 9 14 16 5 30 -12 20 -7
123 6 123 11 0 20 -26 21 -58 1 -24 2 -23 11 8 5 19 14 50 19 68 11 34 4 88
-12 98 -6 3 -16 -2 -23 -11 -12 -17 -14 -16 -28 4 -13 18 -14 28 -4 54 6 18
14 34 17 37 3 3 14 20 23 38 22 43 15 65 -19 56 -14 -4 -25 -2 -25 4 0 6 -3
18 -7 28 -4 12 -3 15 5 10 15 -9 15 9 0 50 -9 26 -9 36 1 48 7 9 17 13 22 10
16 -9 11 144 -5 158 -12 11 -10 16 12 35 25 20 26 22 11 40 -39 43 -41 61 -19
120 17 45 18 58 8 71 -7 8 -13 34 -13 56 0 23 -4 52 -8 66 l-8 25 20 -25 c24
-30 27 -27 34 28 5 39 3 44 -19 52 -15 6 -24 18 -24 30 0 12 -5 30 -11 41 -8
16 -7 25 4 37 8 9 17 30 21 46 6 26 5 28 -8 17 -14 -12 -16 -10 -16 11 0 14 9
33 20 43 16 14 19 26 14 56 -5 32 -4 39 10 39 12 0 16 10 16 38 0 20 7 60 15
87 13 40 13 55 4 72 -10 19 -9 27 7 45 10 13 2 8 -19 -11 -20 -19 -39 -33 -41
-30 -2 2 -7 23 -11 45 -4 30 -3 44 7 50 14 9 278 13 278 4 -1 -19 -21 -32 -44
-28 -22 5 -26 2 -26 -20 0 -23 2 -24 43 -18 23 4 80 7 127 7 47 0 117 0 155 0
58 0 72 3 84 19 17 25 32 25 73 0 18 -11 48 -20 66 -20 32 0 33 2 27 29 l-6
29 123 -1 c76 0 131 4 143 11 25 14 44 15 119 1z m-684 -24 c0 -11 -12 -15
-45 -15 -54 0 -60 17 -7 23 20 2 40 4 45 5 4 1 7 -5 7 -13z m-453 -187 c-3 -8
-6 -5 -6 6 -1 11 2 17 5 13 3 -3 4 -12 1 -19z m8530 -331 c18 -9 37 -26 43
-36 13 -26 24 -288 12 -326 -8 -28 -12 -30 -53 -29 -217 6 -292 4 -354 -11
-239 -55 -393 -271 -442 -620 -51 -360 90 -771 308 -898 90 -53 246 -70 415
-45 65 9 88 9 110 -1 l27 -12 -6 -162 c-5 -148 -7 -163 -26 -178 -46 -38 -360
-38 -503 0 -271 71 -477 230 -590 456 -40 79 -77 200 -100 325 -29 159 -32
530 -5 665 52 261 133 431 276 578 205 212 457 320 736 314 91 -2 128 -7 152
-20z m8698 -5 c100 -27 141 -48 156 -83 14 -34 6 -65 -54 -229 -45 -122 -51
-125 -160 -74 -73 34 -91 39 -157 39 -91 0 -153 -26 -190 -82 -23 -33 -25 -46
-25 -142 0 -170 23 -205 260 -405 357 -300 484 -504 485 -776 0 -106 -18 -181
-71 -289 -89 -181 -263 -293 -502 -322 -211 -26 -520 39 -580 122 -17 24 -18
33 -8 95 15 96 58 231 82 255 10 10 25 19 33 19 8 0 52 -26 98 -57 132 -90
238 -111 370 -73 57 17 120 69 147 123 46 94 25 273 -44 363 -14 18 -76 76
-139 128 -143 120 -382 367 -440 454 -69 104 -80 146 -79 292 0 105 5 139 27
215 45 150 129 262 260 349 152 101 341 128 531 78z m-5881 8 c37 -14 49 -48
101 -300 113 -541 251 -1020 294 -1020 35 0 129 361 255 980 31 151 63 289 71
307 l14 32 158 3 c182 3 200 2 213 -22 5 -9 16 -86 25 -171 85 -820 150 -1343
221 -1766 30 -184 54 -344 52 -356 -5 -37 -40 -44 -212 -46 -145 -2 -164 0
-178 16 -12 13 -27 105 -58 358 -46 381 -82 606 -103 656 l-15 34 -16 -39
c-31 -69 -204 -781 -231 -945 -13 -78 -23 -82 -198 -79 l-152 3 -17 35 c-9 19
-58 197 -107 395 -118 473 -162 615 -190 615 -20 0 -61 -267 -115 -738 -24
-215 -36 -296 -47 -303 -8 -5 -84 -9 -170 -9 -143 0 -159 2 -183 21 -21 16
-26 29 -26 62 0 23 29 294 65 602 36 308 90 783 120 1055 63 574 63 570 75
590 8 14 98 25 307 39 12 0 33 -3 47 -9z m-1465 -42 c6 -24 56 -259 110 -523
217 -1046 270 -1288 346 -1587 48 -188 48 -188 -175 -188 l-169 0 -41 133
c-23 72 -44 140 -46 150 -11 36 -43 41 -244 42 -107 0 -207 -3 -222 -8 -24 -6
-27 -13 -33 -65 -13 -103 -35 -197 -54 -222 -18 -25 -19 -25 -205 -28 -180 -2
-186 -2 -186 18 0 35 59 313 150 710 49 212 114 503 144 648 31 144 88 405
126 579 39 175 70 326 70 338 0 42 14 45 221 45 l196 0 12 -42z m3863 27 c192
-38 341 -143 425 -301 72 -134 110 -349 100 -559 -10 -204 -68 -356 -182 -471
-114 -116 -247 -167 -470 -181 l-120 -8 -5 -402 c-3 -274 -9 -406 -16 -413
-13 -13 -323 -15 -335 -3 -6 6 -16 2199 -10 2306 1 19 8 31 24 37 38 15 505
12 589 -5z m1323 1 c17 -12 18 -28 12 -302 -4 -159 -11 -424 -17 -588 -12
-312 -2 -688 21 -810 15 -81 43 -139 89 -180 88 -79 218 -68 306 26 42 44 59
79 83 174 40 159 44 260 37 972 -7 781 -18 705 107 717 41 4 114 6 162 4 81
-4 88 -6 111 -32 l24 -28 -1 -357 c-2 -713 -16 -1372 -32 -1447 -58 -270 -192
-413 -457 -486 -71 -20 -311 -17 -389 5 -103 28 -199 82 -273 153 -109 106
-164 236 -188 443 -14 123 -26 1632 -13 1680 15 60 50 70 239 70 119 0 165 -3
179 -14z m-7132 -2990 c156 -43 285 -149 350 -286 57 -121 72 -207 72 -415 0
-171 -2 -184 -28 -260 -32 -91 -101 -201 -155 -245 -95 -79 -249 -129 -397
-130 -44 0 -86 -4 -92 -8 -10 -6 -13 -94 -15 -364 -2 -196 -7 -360 -11 -365
-11 -10 -278 -16 -294 -6 -8 6 -13 278 -18 1034 l-8 1026 23 23 c22 22 23 22
269 17 186 -3 260 -8 304 -21z m1594 -86 c13 -58 82 -386 154 -730 138 -660
206 -969 239 -1087 28 -101 27 -141 -6 -153 -39 -15 -289 -13 -302 3 -5 6 -26
66 -46 132 -20 66 -43 126 -50 134 -19 18 -370 22 -402 4 -17 -10 -23 -26 -28
-75 -11 -99 -26 -155 -47 -182 -20 -25 -20 -25 -182 -23 l-162 2 3 35 c5 54
56 298 127 606 36 154 89 395 119 535 30 140 84 388 121 552 36 164 65 306 65
316 0 38 18 42 200 39 l175 -3 22 -105z m1432 81 c135 -47 234 -138 301 -275
50 -100 70 -192 69 -316 -1 -193 -54 -307 -220 -473 l-109 -108 207 -409 c168
-334 206 -417 207 -452 l1 -43 -175 -3 c-96 -1 -184 0 -196 2 -14 4 -27 22
-39 53 -24 66 -192 426 -282 606 -105 212 -103 218 -103 -259 0 -369 -1 -384
-19 -394 -30 -16 -306 -13 -320 3 -7 10 -10 307 -8 1036 l2 1023 25 20 c23 19
36 20 310 16 266 -4 289 -6 349 -27z m1151 -6 c13 -26 15 -139 15 -862 0 -457
3 -835 7 -838 4 -4 109 -7 234 -6 201 2 228 0 245 -15 17 -15 19 -33 19 -170
0 -136 -2 -154 -17 -163 -23 -11 -828 -19 -840 -8 -9 10 -27 2008 -19 2043 13
51 26 55 189 52 l152 -3 15 -30z m1825 5 c90 -28 183 -79 263 -144 169 -136
265 -327 303 -599 14 -104 18 -333 7 -431 -21 -201 -81 -411 -151 -535 -112
-197 -351 -350 -574 -368 -237 -18 -513 126 -647 339 -216 342 -232 1068 -32
1397 106 173 298 312 491 355 95 21 247 15 340 -14z m1287 19 c21 -11 21 -15
14 -278 -5 -146 -11 -378 -15 -516 -8 -288 2 -655 19 -735 23 -104 70 -165
146 -190 86 -29 191 20 236 110 73 146 82 261 73 980 -6 563 -6 587 12 609 17
21 29 23 145 28 144 7 179 -2 198 -47 15 -36 5 -1367 -11 -1524 -30 -292 -154
-450 -406 -517 -254 -68 -535 17 -660 199 -70 101 -98 191 -112 352 -16 196
-23 1430 -8 1483 12 45 52 56 210 56 83 0 147 -4 159 -10z m1806 -4 c190 -45
334 -189 398 -400 29 -93 26 -319 -4 -399 -38 -102 -83 -167 -194 -278 l-108
-108 207 -410 c167 -332 206 -418 207 -453 l1 -42 -195 0 -194 0 -29 70 c-34
80 -238 517 -304 648 -37 75 -46 87 -59 76 -13 -10 -15 -66 -13 -391 1 -286
-2 -382 -11 -393 -10 -12 -42 -15 -160 -15 -82 0 -155 3 -164 6 -14 6 -16 106
-16 1031 l0 1024 25 24 24 25 263 0 c198 0 279 -4 326 -15z m-17031 -1867 c-3
-7 -5 -2 -5 12 0 14 2 19 5 13 2 -7 2 -19 0 -25z m2983 -692 c0 -16 -18 -31
-27 -22 -8 8 5 36 17 36 5 0 10 -6 10 -14z m1420 4 c0 -5 -4 -10 -10 -10 -5 0
-10 5 -10 10 0 6 5 10 10 10 6 0 10 -4 10 -10z m-1937 -7 c-7 -2 -21 -2 -30 0
-10 3 -4 5 12 5 17 0 24 -2 18 -5z m427 -3 c0 -6 -36 -10 -87 -10 -61 0 -83 3
-73 10 20 13 160 13 160 0z m-680 -45 c-16 -20 -70 -20 -70 -1 0 10 13 16 38
18 46 4 48 2 32 -17z m-2032 8 c-10 -2 -26 -2 -35 0 -10 3 -2 5 17 5 19 0 27
-2 18 -5z m4512 -43 c0 -5 -5 -10 -11 -10 -5 0 -7 5 -4 10 3 6 8 10 11 10 2 0
4 -4 4 -10z"/>
<path d="M1165 6300 c-15 -6 -7 -9 30 -9 37 0 45 3 30 9 -11 5 -24 9 -30 9 -5
0 -19 -4 -30 -9z"/>
<path d="M1316 6292 c-3 -5 8 -6 25 -4 16 2 29 6 29 8 0 8 -49 4 -54 -4z"/>
<path d="M1700 6270 c0 -5 17 -10 38 -10 27 0 33 3 22 10 -20 13 -60 13 -60 0z"/>
<path d="M3380 6260 c0 -6 27 -10 60 -10 33 0 60 4 60 10 0 6 -27 10 -60 10
-33 0 -60 -4 -60 -10z"/>
<path d="M6410 6101 c0 -12 5 -21 10 -21 6 0 10 6 10 14 0 8 -4 18 -10 21 -5
3 -10 -3 -10 -14z"/>
<path d="M6410 5296 c0 -14 5 -26 10 -26 6 0 10 9 10 19 0 11 -4 23 -10 26 -6
4 -10 -5 -10 -19z"/>
<path d="M390 5201 c0 -12 6 -21 16 -21 9 0 14 7 12 17 -5 25 -28 28 -28 4z"/>
<path d="M378 4314 c-3 -5 -4 -49 -1 -97 6 -87 6 -88 25 -70 16 16 17 24 8 47
-5 15 -10 42 -11 59 -1 38 -13 74 -21 61z"/>
<path d="M351 3771 c-8 -6 -11 -16 -7 -27 5 -12 10 -14 17 -7 16 16 7 45 -10
34z"/>
<path d="M388 3414 c-5 -4 -8 -25 -8 -48 0 -28 3 -37 11 -29 6 6 9 27 7 48 -2
20 -6 33 -10 29z"/>
<path d="M337 3235 c-18 -13 -24 -55 -7 -55 11 0 30 -64 30 -104 l0 -29 19 25
c19 23 19 28 5 74 -9 32 -11 50 -4 52 16 6 12 30 -8 41 -12 6 -23 5 -35 -4z"/>
<path d="M360 2113 c0 -10 4 -25 10 -33 8 -12 10 -12 16 3 7 20 -1 47 -16 47
-5 0 -10 -8 -10 -17z"/>
<path d="M340 2044 c0 -8 5 -12 10 -9 6 3 10 10 10 16 0 5 -4 9 -10 9 -5 0
-10 -7 -10 -16z"/>
<path d="M421 1214 c0 -11 3 -14 6 -6 3 7 2 16 -1 19 -3 4 -6 -2 -5 -13z"/>
<path d="M411 614 c0 -11 3 -14 6 -6 3 7 2 16 -1 19 -3 4 -6 -2 -5 -13z"/>
<path d="M6035 290 c3 -5 15 -10 26 -10 10 0 19 5 19 10 0 6 -12 10 -26 10
-14 0 -23 -4 -19 -10z"/>
<path d="M6188 293 c7 -3 16 -2 19 1 4 3 -2 6 -13 5 -11 0 -14 -3 -6 -6z"/>
<path d="M10030 4817 c0 -3 -29 -135 -65 -293 -36 -158 -65 -297 -63 -308 3
-20 10 -21 136 -24 115 -2 133 0 139 14 5 14 -22 151 -100 508 -12 55 -28 101
-35 104 -6 2 -12 1 -12 -1z"/>
<path d="M13888 5439 c-17 -9 -18 -40 -18 -413 0 -349 2 -405 15 -416 24 -20
112 -5 185 32 120 61 169 160 177 353 8 182 -25 284 -120 375 -61 59 -192 97
-239 69z"/>
<path d="M8068 2498 c-16 -12 -18 -45 -19 -366 -1 -264 2 -356 11 -367 24 -29
131 -8 200 40 88 61 125 160 125 330 -1 141 -20 204 -85 278 -63 71 -190 118
-232 85z"/>
<path d="M9686 1933 c-26 -95 -118 -535 -112 -540 4 -4 59 -10 122 -12 102 -3
115 -1 121 15 7 19 3 43 -63 341 -24 111 -44 205 -44 208 0 13 -19 3 -24 -12z"/>
<path d="M11030 2462 l-25 -20 0 -286 c0 -317 -3 -306 66 -306 93 0 200 71
237 157 28 67 45 167 37 227 -19 142 -105 232 -234 243 -46 4 -60 2 -81 -15z"/>
<path d="M14001 2508 c-113 -43 -229 -194 -275 -358 -54 -191 -65 -448 -27
-629 54 -259 142 -383 307 -436 109 -35 237 -14 340 56 78 53 136 156 181 325
24 91 27 115 27 294 1 209 -10 293 -59 433 -70 204 -219 338 -375 336 -41 0
-85 -8 -119 -21z"/>
<path d="M17149 2461 l-24 -19 0 -286 c0 -244 2 -288 15 -296 50 -32 191 17
249 86 65 80 92 259 54 369 -41 121 -218 208 -294 146z"/>
</g>
</svg>
